<svg width="349" height="274" viewBox="0 0 349 274" fill="none" xmlns="http://www.w3.org/2000/svg">
<circle cx="204" cy="139" r="2" fill="white" fill-opacity="0.2"/>
<circle cx="212" cy="139" r="2" fill="white" fill-opacity="0.2"/>
<circle cx="220" cy="139" r="2" fill="white" fill-opacity="0.2"/>
<circle cx="228" cy="139" r="2" fill="white" fill-opacity="0.2"/>
<circle cx="236" cy="139" r="2" fill="white" fill-opacity="0.2"/>
<circle cx="244" cy="139" r="2" fill="white" fill-opacity="0.2"/>
<circle cx="252" cy="139" r="2" fill="white" fill-opacity="0.2"/>
<circle cx="260" cy="139" r="2" fill="white" fill-opacity="0.2"/>
<circle cx="204" cy="147" r="2" fill="white" fill-opacity="0.2"/>
<circle cx="212" cy="147" r="2" fill="white" fill-opacity="0.2"/>
<circle cx="220" cy="147" r="2" fill="white" fill-opacity="0.2"/>
<circle cx="228" cy="147" r="2" fill="white" fill-opacity="0.2"/>
<circle cx="236" cy="147" r="2" fill="white" fill-opacity="0.2"/>
<circle cx="244" cy="147" r="2" fill="white" fill-opacity="0.2"/>
<circle cx="252" cy="147" r="2" fill="white" fill-opacity="0.2"/>
<circle cx="260" cy="147" r="2" fill="white" fill-opacity="0.2"/>
<circle cx="204" cy="155" r="2" fill="white" fill-opacity="0.2"/>
<circle cx="212" cy="155" r="2" fill="white" fill-opacity="0.2"/>
<circle cx="220" cy="155" r="2" fill="white" fill-opacity="0.2"/>
<circle cx="228" cy="155" r="2" fill="white" fill-opacity="0.2"/>
<circle cx="236" cy="155" r="2" fill="white" fill-opacity="0.2"/>
<circle cx="244" cy="155" r="2" fill="white" fill-opacity="0.2"/>
<circle cx="252" cy="155" r="2" fill="white" fill-opacity="0.2"/>
<circle cx="260" cy="155" r="2" fill="white" fill-opacity="0.2"/>
<circle cx="204" cy="163" r="2" fill="white" fill-opacity="0.2"/>
<circle cx="212" cy="163" r="2" fill="white" fill-opacity="0.2"/>
<circle cx="220" cy="163" r="2" fill="white" fill-opacity="0.2"/>
<circle cx="228" cy="163" r="2" fill="white" fill-opacity="0.2"/>
<circle cx="236" cy="163" r="2" fill="white" fill-opacity="0.2"/>
<circle cx="244" cy="163" r="2" fill="white" fill-opacity="0.2"/>
<circle cx="252" cy="163" r="2" fill="white" fill-opacity="0.2"/>
<circle cx="260" cy="163" r="2" fill="white" fill-opacity="0.2"/>
<circle cx="204" cy="171" r="2" fill="white" fill-opacity="0.2"/>
<circle cx="212" cy="171" r="2" fill="white" fill-opacity="0.2"/>
<circle cx="220" cy="171" r="2" fill="white" fill-opacity="0.2"/>
<circle cx="228" cy="171" r="2" fill="white" fill-opacity="0.2"/>
<circle cx="236" cy="171" r="2" fill="white" fill-opacity="0.2"/>
<circle cx="244" cy="171" r="2" fill="white" fill-opacity="0.2"/>
<circle cx="252" cy="171" r="2" fill="white" fill-opacity="0.2"/>
<circle cx="260" cy="171" r="2" fill="white" fill-opacity="0.2"/>
<circle cx="204" cy="179" r="2" fill="white" fill-opacity="0.2"/>
<circle cx="212" cy="179" r="2" fill="white" fill-opacity="0.2"/>
<circle cx="220" cy="179" r="2" fill="white" fill-opacity="0.2"/>
<circle cx="228" cy="179" r="2" fill="white" fill-opacity="0.2"/>
<circle cx="236" cy="179" r="2" fill="white" fill-opacity="0.2"/>
<circle cx="244" cy="179" r="2" fill="white" fill-opacity="0.2"/>
<circle cx="252" cy="179" r="2" fill="white" fill-opacity="0.2"/>
<circle cx="260" cy="179" r="2" fill="white" fill-opacity="0.2"/>
<circle cx="204" cy="187" r="2" fill="white" fill-opacity="0.2"/>
<circle cx="212" cy="187" r="2" fill="white" fill-opacity="0.2"/>
<circle cx="220" cy="187" r="2" fill="white" fill-opacity="0.2"/>
<circle cx="228" cy="187" r="2" fill="white" fill-opacity="0.2"/>
<circle cx="236" cy="187" r="2" fill="white" fill-opacity="0.2"/>
<circle cx="244" cy="187" r="2" fill="white" fill-opacity="0.2"/>
<circle cx="252" cy="187" r="2" fill="white" fill-opacity="0.2"/>
<circle cx="260" cy="187" r="2" fill="white" fill-opacity="0.2"/>
<circle cx="204" cy="195" r="2" fill="white" fill-opacity="0.2"/>
<circle cx="212" cy="195" r="2" fill="white" fill-opacity="0.2"/>
<circle cx="220" cy="195" r="2" fill="white" fill-opacity="0.2"/>
<circle cx="228" cy="195" r="2" fill="white" fill-opacity="0.2"/>
<circle cx="236" cy="195" r="2" fill="white" fill-opacity="0.2"/>
<circle cx="244" cy="195" r="2" fill="white" fill-opacity="0.2"/>
<circle cx="252" cy="195" r="2" fill="white" fill-opacity="0.2"/>
<circle cx="260" cy="195" r="2" fill="white" fill-opacity="0.2"/>
<circle cx="204" cy="203" r="2" fill="white" fill-opacity="0.2"/>
<circle cx="212" cy="203" r="2" fill="white" fill-opacity="0.2"/>
<circle cx="220" cy="203" r="2" fill="white" fill-opacity="0.2"/>
<circle cx="228" cy="203" r="2" fill="white" fill-opacity="0.2"/>
<circle cx="236" cy="203" r="2" fill="white" fill-opacity="0.2"/>
<circle cx="244" cy="203" r="2" fill="white" fill-opacity="0.2"/>
<circle cx="252" cy="203" r="2" fill="white" fill-opacity="0.2"/>
<circle cx="260" cy="203" r="2" fill="white" fill-opacity="0.2"/>
<circle cx="204" cy="211" r="2" fill="white" fill-opacity="0.2"/>
<circle cx="212" cy="211" r="2" fill="white" fill-opacity="0.2"/>
<circle cx="220" cy="211" r="2" fill="white" fill-opacity="0.2"/>
<circle cx="228" cy="211" r="2" fill="white" fill-opacity="0.2"/>
<circle cx="236" cy="211" r="2" fill="white" fill-opacity="0.2"/>
<circle cx="244" cy="211" r="2" fill="white" fill-opacity="0.2"/>
<circle cx="252" cy="211" r="2" fill="white" fill-opacity="0.2"/>
<circle cx="260" cy="211" r="2" fill="white" fill-opacity="0.2"/>
<circle cx="73" cy="108" r="2" transform="rotate(-90 73 108)" fill="white" fill-opacity="0.2"/>
<circle cx="73" cy="100" r="2" transform="rotate(-90 73 100)" fill="white" fill-opacity="0.2"/>
<circle cx="73" cy="92" r="2" transform="rotate(-90 73 92)" fill="white" fill-opacity="0.2"/>
<circle cx="73" cy="84" r="2" transform="rotate(-90 73 84)" fill="white" fill-opacity="0.2"/>
<circle cx="73" cy="76" r="2" transform="rotate(-90 73 76)" fill="white" fill-opacity="0.2"/>
<circle cx="73" cy="68" r="2" transform="rotate(-90 73 68)" fill="white" fill-opacity="0.2"/>
<circle cx="73" cy="60" r="2" transform="rotate(-90 73 60)" fill="white" fill-opacity="0.2"/>
<circle cx="73" cy="52" r="2" transform="rotate(-90 73 52)" fill="white" fill-opacity="0.2"/>
<circle cx="81" cy="108" r="2" transform="rotate(-90 81 108)" fill="white" fill-opacity="0.2"/>
<circle cx="81" cy="100" r="2" transform="rotate(-90 81 100)" fill="white" fill-opacity="0.2"/>
<circle cx="81" cy="92" r="2" transform="rotate(-90 81 92)" fill="white" fill-opacity="0.2"/>
<circle cx="81" cy="84" r="2" transform="rotate(-90 81 84)" fill="white" fill-opacity="0.2"/>
<circle cx="81" cy="76" r="2" transform="rotate(-90 81 76)" fill="white" fill-opacity="0.2"/>
<circle cx="81" cy="68" r="2" transform="rotate(-90 81 68)" fill="white" fill-opacity="0.2"/>
<circle cx="81" cy="60" r="2" transform="rotate(-90 81 60)" fill="white" fill-opacity="0.2"/>
<circle cx="81" cy="52" r="2" transform="rotate(-90 81 52)" fill="white" fill-opacity="0.2"/>
<circle cx="89" cy="108" r="2" transform="rotate(-90 89 108)" fill="white" fill-opacity="0.2"/>
<circle cx="89" cy="100" r="2" transform="rotate(-90 89 100)" fill="white" fill-opacity="0.2"/>
<circle cx="89" cy="92" r="2" transform="rotate(-90 89 92)" fill="white" fill-opacity="0.2"/>
<circle cx="89" cy="84" r="2" transform="rotate(-90 89 84)" fill="white" fill-opacity="0.2"/>
<circle cx="89" cy="76" r="2" transform="rotate(-90 89 76)" fill="white" fill-opacity="0.2"/>
<circle cx="89" cy="68" r="2" transform="rotate(-90 89 68)" fill="white" fill-opacity="0.2"/>
<circle cx="89" cy="60" r="2" transform="rotate(-90 89 60)" fill="white" fill-opacity="0.2"/>
<circle cx="89" cy="52" r="2" transform="rotate(-90 89 52)" fill="white" fill-opacity="0.2"/>
<circle cx="97" cy="108" r="2" transform="rotate(-90 97 108)" fill="white" fill-opacity="0.2"/>
<circle cx="97" cy="100" r="2" transform="rotate(-90 97 100)" fill="white" fill-opacity="0.2"/>
<circle cx="97" cy="92" r="2" transform="rotate(-90 97 92)" fill="white" fill-opacity="0.2"/>
<circle cx="97" cy="84" r="2" transform="rotate(-90 97 84)" fill="white" fill-opacity="0.2"/>
<circle cx="97" cy="76" r="2" transform="rotate(-90 97 76)" fill="white" fill-opacity="0.2"/>
<circle cx="97" cy="68" r="2" transform="rotate(-90 97 68)" fill="white" fill-opacity="0.2"/>
<circle cx="97" cy="60" r="2" transform="rotate(-90 97 60)" fill="white" fill-opacity="0.2"/>
<circle cx="97" cy="52" r="2" transform="rotate(-90 97 52)" fill="white" fill-opacity="0.2"/>
<circle cx="105" cy="108" r="2" transform="rotate(-90 105 108)" fill="white" fill-opacity="0.2"/>
<circle cx="105" cy="100" r="2" transform="rotate(-90 105 100)" fill="white" fill-opacity="0.2"/>
<circle cx="105" cy="92" r="2" transform="rotate(-90 105 92)" fill="white" fill-opacity="0.2"/>
<circle cx="105" cy="84" r="2" transform="rotate(-90 105 84)" fill="white" fill-opacity="0.2"/>
<circle cx="105" cy="76" r="2" transform="rotate(-90 105 76)" fill="white" fill-opacity="0.2"/>
<circle cx="105" cy="68" r="2" transform="rotate(-90 105 68)" fill="white" fill-opacity="0.2"/>
<circle cx="105" cy="60" r="2" transform="rotate(-90 105 60)" fill="white" fill-opacity="0.2"/>
<circle cx="105" cy="52" r="2" transform="rotate(-90 105 52)" fill="white" fill-opacity="0.2"/>
<circle cx="113" cy="108" r="2" transform="rotate(-90 113 108)" fill="white" fill-opacity="0.2"/>
<circle cx="113" cy="100" r="2" transform="rotate(-90 113 100)" fill="white" fill-opacity="0.2"/>
<circle cx="113" cy="92" r="2" transform="rotate(-90 113 92)" fill="white" fill-opacity="0.2"/>
<circle cx="113" cy="84" r="2" transform="rotate(-90 113 84)" fill="white" fill-opacity="0.2"/>
<circle cx="113" cy="76" r="2" transform="rotate(-90 113 76)" fill="white" fill-opacity="0.2"/>
<circle cx="113" cy="68" r="2" transform="rotate(-90 113 68)" fill="white" fill-opacity="0.2"/>
<circle cx="113" cy="60" r="2" transform="rotate(-90 113 60)" fill="white" fill-opacity="0.2"/>
<circle cx="113" cy="52" r="2" transform="rotate(-90 113 52)" fill="white" fill-opacity="0.2"/>
<circle cx="121" cy="108" r="2" transform="rotate(-90 121 108)" fill="white" fill-opacity="0.2"/>
<circle cx="121" cy="100" r="2" transform="rotate(-90 121 100)" fill="white" fill-opacity="0.2"/>
<circle cx="121" cy="92" r="2" transform="rotate(-90 121 92)" fill="white" fill-opacity="0.2"/>
<circle cx="121" cy="84" r="2" transform="rotate(-90 121 84)" fill="white" fill-opacity="0.2"/>
<circle cx="121" cy="76" r="2" transform="rotate(-90 121 76)" fill="white" fill-opacity="0.2"/>
<circle cx="121" cy="68" r="2" transform="rotate(-90 121 68)" fill="white" fill-opacity="0.2"/>
<circle cx="121" cy="60" r="2" transform="rotate(-90 121 60)" fill="white" fill-opacity="0.2"/>
<circle cx="121" cy="52" r="2" transform="rotate(-90 121 52)" fill="white" fill-opacity="0.2"/>
<circle cx="129" cy="108" r="2" transform="rotate(-90 129 108)" fill="white" fill-opacity="0.2"/>
<circle cx="129" cy="100" r="2" transform="rotate(-90 129 100)" fill="white" fill-opacity="0.2"/>
<circle cx="129" cy="92" r="2" transform="rotate(-90 129 92)" fill="white" fill-opacity="0.2"/>
<circle cx="129" cy="84" r="2" transform="rotate(-90 129 84)" fill="white" fill-opacity="0.2"/>
<circle cx="129" cy="76" r="2" transform="rotate(-90 129 76)" fill="white" fill-opacity="0.2"/>
<circle cx="129" cy="68" r="2" transform="rotate(-90 129 68)" fill="white" fill-opacity="0.2"/>
<circle cx="129" cy="60" r="2" transform="rotate(-90 129 60)" fill="white" fill-opacity="0.2"/>
<circle cx="129" cy="52" r="2" transform="rotate(-90 129 52)" fill="white" fill-opacity="0.2"/>
<circle cx="137" cy="108" r="2" transform="rotate(-90 137 108)" fill="white" fill-opacity="0.2"/>
<circle cx="137" cy="100" r="2" transform="rotate(-90 137 100)" fill="white" fill-opacity="0.2"/>
<circle cx="137" cy="92" r="2" transform="rotate(-90 137 92)" fill="white" fill-opacity="0.2"/>
<circle cx="137" cy="84" r="2" transform="rotate(-90 137 84)" fill="white" fill-opacity="0.2"/>
<circle cx="137" cy="76" r="2" transform="rotate(-90 137 76)" fill="white" fill-opacity="0.2"/>
<circle cx="137" cy="68" r="2" transform="rotate(-90 137 68)" fill="white" fill-opacity="0.2"/>
<circle cx="137" cy="60" r="2" transform="rotate(-90 137 60)" fill="white" fill-opacity="0.2"/>
<circle cx="137" cy="52" r="2" transform="rotate(-90 137 52)" fill="white" fill-opacity="0.2"/>
<circle cx="145" cy="108" r="2" transform="rotate(-90 145 108)" fill="white" fill-opacity="0.2"/>
<circle cx="145" cy="100" r="2" transform="rotate(-90 145 100)" fill="white" fill-opacity="0.2"/>
<circle cx="145" cy="92" r="2" transform="rotate(-90 145 92)" fill="white" fill-opacity="0.2"/>
<circle cx="145" cy="84" r="2" transform="rotate(-90 145 84)" fill="white" fill-opacity="0.2"/>
<circle cx="145" cy="76" r="2" transform="rotate(-90 145 76)" fill="white" fill-opacity="0.2"/>
<circle cx="145" cy="68" r="2" transform="rotate(-90 145 68)" fill="white" fill-opacity="0.2"/>
<circle cx="145" cy="60" r="2" transform="rotate(-90 145 60)" fill="white" fill-opacity="0.2"/>
<circle cx="145" cy="52" r="2" transform="rotate(-90 145 52)" fill="white" fill-opacity="0.2"/>
<g clip-path="url(#clip0)">
<path d="M133.335 193.127C133.443 184.616 127.494 166.905 118.795 155.751C110.096 144.597 96.2816 136.346 86.4269 139.598C77.1994 142.636 78.0505 154.694 89.1145 162.82C100.179 170.945 116.797 181.176 121.536 195.071L131.615 212.093L133.335 193.127Z" fill="#F7673F"/>
<path opacity="0.1" d="M133.335 193.127C133.443 184.616 127.494 166.905 118.795 155.751C110.096 144.597 96.2816 136.346 86.4269 139.598C77.1994 142.636 78.0505 154.694 89.1145 162.82C100.179 170.945 116.797 181.176 121.536 195.071L131.615 212.093L133.335 193.127Z" fill="black"/>
<path d="M133.828 204.782C133.692 204.77 133.564 204.714 133.464 204.621C133.363 204.529 133.296 204.406 133.273 204.271C127.898 175.146 104.694 151.244 90.6918 145.86C90.6071 145.837 90.5283 145.797 90.4603 145.741C90.3924 145.686 90.3368 145.617 90.2972 145.539C90.2575 145.46 90.2348 145.375 90.2303 145.287C90.2258 145.199 90.2398 145.112 90.2713 145.03C90.3028 144.948 90.3511 144.874 90.4131 144.812C90.4751 144.75 90.5494 144.702 90.6312 144.67C90.7131 144.638 90.8006 144.624 90.8882 144.629C90.9758 144.633 91.0614 144.656 91.1397 144.696C105.411 150.187 129.062 174.484 134.491 204.047C134.507 204.127 134.506 204.21 134.49 204.29C134.474 204.37 134.442 204.445 134.396 204.513C134.35 204.58 134.291 204.638 134.223 204.683C134.155 204.727 134.079 204.758 133.998 204.773L133.828 204.782Z" fill="white"/>
<path d="M129.268 223.327C127.96 218.525 122.209 210.561 112.838 203.922C102.463 196.585 89.2762 193.109 86.2929 187.456C82.7094 180.665 88.4699 174.358 99.1935 175.81C109.917 177.261 128.623 192.168 131.382 214.261L129.268 223.327Z" fill="#F7673F"/>
<path d="M131.409 218.328C131.29 218.318 131.176 218.274 131.08 218.201C130.985 218.128 130.913 218.029 130.872 217.916C122.263 192.912 103.378 183.944 94.5979 182.699C94.4352 182.676 94.288 182.59 94.1889 182.459C94.0898 182.328 94.0468 182.163 94.0694 182C94.0919 181.837 94.1782 181.69 94.3093 181.591C94.4403 181.492 94.6054 181.449 94.7681 181.472C104.479 182.851 123.266 191.989 132.055 217.504C132.106 217.661 132.095 217.832 132.023 217.98C131.952 218.129 131.825 218.244 131.669 218.301C131.585 218.327 131.497 218.336 131.409 218.328Z" fill="white"/>
<path d="M246.584 208.726C249.868 209.795 252.719 211.875 254.723 214.662C255.956 216.039 256.688 217.784 256.802 219.62C256.802 221.443 255.285 223.333 253.43 223.21C252.339 223.03 251.346 222.48 250.62 221.654C248.709 219.831 246.888 217.497 244.257 217.207C242.751 217.041 241.132 217.585 239.761 216.93C239.114 216.564 238.608 215.998 238.321 215.318C238.035 214.638 237.984 213.884 238.176 213.172C238.599 211.771 239.543 210.579 240.818 209.837C241.627 209.224 242.568 208.805 243.569 208.612C244.569 208.419 245.602 208.458 246.584 208.726Z" fill="#F7673F"/>
<path d="M250.824 194.275C250.362 197.379 253.541 199.153 255.829 199.12C258.117 199.088 260.229 197.92 262.176 196.773C266.675 194.156 271.361 191.365 274.09 187.038C274.97 185.756 275.473 184.258 275.542 182.712C275.564 181.941 275.381 181.178 275.01 180.499C274.64 179.819 274.095 179.247 273.43 178.839C271.801 177.963 269.788 178.472 268.061 179.121C262.957 181.038 258.353 184.054 254.586 187.947C252.712 189.657 251.402 191.88 250.824 194.329" fill="#F7673F"/>
<path d="M244.433 193.734C245.915 193.482 247.316 192.858 248.515 191.918C249.714 190.977 250.675 189.748 251.316 188.335C252.565 185.483 253.031 182.328 252.665 179.218C252.361 175.57 251.376 172.02 249.764 168.765C249.189 167.452 248.345 166.285 247.291 165.347C246.759 164.887 246.128 164.567 245.451 164.416C244.775 164.265 244.073 164.286 243.406 164.479C241.479 165.169 240.633 167.473 240.12 169.533C239.208 173.156 238.578 176.849 238.236 180.576C237.947 183.571 237.882 186.721 239.135 189.482C240.387 192.243 242.517 194.113 244.851 193.712" fill="#F7673F"/>
<path d="M223.337 223.216C223.678 222.991 223.996 222.732 224.287 222.442L226.778 220.236C228.004 219.149 229.287 218.131 230.622 217.187C232.265 216.05 233.995 215.049 235.796 214.196C237.584 213.334 239.484 212.736 241.439 212.421C243.032 212.159 244.662 212.264 246.21 212.729C247.248 213.049 248.229 213.537 249.115 214.173C249.422 214.442 249.755 214.679 250.109 214.878C249.847 214.562 249.555 214.272 249.238 214.014C248.366 213.297 247.374 212.746 246.31 212.387C244.723 211.854 243.036 211.706 241.383 211.955C239.376 212.25 237.425 212.852 235.595 213.741C233.765 214.605 232.011 215.629 230.354 216.801C229.024 217.777 227.752 218.833 226.544 219.963C225.505 220.918 224.7 221.737 224.153 222.295C223.85 222.572 223.577 222.881 223.337 223.216Z" fill="white"/>
<path d="M225.345 221.208C225.495 221.098 225.633 220.972 225.755 220.833C226.033 220.523 226.399 220.148 226.865 219.728C227.809 218.723 229.185 217.287 230.927 215.553C234.39 212.073 238.33 208.539 244.057 203.69C249.44 199.139 255.799 193.937 260.25 190.844C261.249 190.126 262.17 189.508 262.98 188.966C263.79 188.425 264.489 187.95 265.078 187.597L266.398 186.724C266.557 186.633 266.706 186.526 266.842 186.404C266.668 186.461 266.504 186.543 266.354 186.647L264.967 187.431C264.367 187.762 263.657 188.215 262.836 188.734C262.014 189.254 261.06 189.839 260.05 190.557C254.75 194.174 249.648 198.071 244.767 202.232C239.029 207.092 234.079 211.764 230.672 215.31C228.963 217.077 227.631 218.557 226.732 219.595L225.711 220.81C225.573 220.928 225.45 221.061 225.345 221.208Z" fill="white"/>
<path d="M234.046 211.838C234.447 211.458 234.819 211.051 235.161 210.618C236.129 209.464 237.038 208.261 237.883 207.016C239.143 205.166 240.294 203.245 241.33 201.262C242.637 198.849 243.756 196.34 244.677 193.758C246.475 189.101 247.409 184.158 247.432 179.17C247.433 178.31 247.377 177.451 247.265 176.598C247.265 176.221 247.265 175.866 247.142 175.489C247.019 175.113 247.019 174.891 246.964 174.625C246.868 174.08 246.734 173.543 246.562 173.017C246.863 175.037 247.038 177.073 247.086 179.114C246.961 184.046 245.988 188.92 244.208 193.525C243.284 196.082 242.188 198.574 240.929 200.985C239.912 202.962 238.795 204.886 237.582 206.75C236.545 208.346 235.641 209.587 234.994 210.43C234.638 210.872 234.321 211.343 234.046 211.838Z" fill="white"/>
<path d="M94.9178 239.212C141.446 242.872 216.883 242.872 263.406 239.212C309.928 235.552 309.934 229.615 263.406 225.959C216.878 222.304 141.446 222.299 94.9178 225.959C48.39 229.619 48.3952 235.553 94.9178 239.212Z" fill="white" fill-opacity="0.2"/>
<path d="M205.131 219.495V139.974H204.073V219.495H205.131Z" fill="#E6E6E6"/>
<path d="M237.339 139.974H204.074V141.313H237.339V139.974Z" fill="#E6E6E6"/>
<path d="M130.877 110.731L145.428 41.424H161.492L146.934 110.731H130.877Z" fill="white"/>
<path d="M223.516 229.514H135.395C133.765 229.529 132.149 229.207 130.65 228.567C129.151 227.928 127.8 226.985 126.683 225.798C125.566 224.611 124.707 223.206 124.159 221.67C123.611 220.135 123.387 218.503 123.501 216.877L134.21 33.7197C134.454 30.32 135.965 27.1356 138.444 24.7959C140.922 22.4561 144.188 21.1312 147.596 21.083H235.738C237.368 21.068 238.983 21.3904 240.483 22.0299C241.982 22.6695 243.332 23.6124 244.45 24.7993C245.567 25.9862 246.426 27.3914 246.974 28.9266C247.521 30.4618 247.745 32.0937 247.632 33.7197L236.889 216.877C236.645 220.275 235.136 223.457 232.661 225.797C230.185 228.136 226.922 229.462 223.516 229.514Z" fill="#F7673F"/>
<path opacity="0.8" d="M223.516 229.514H135.395C133.765 229.529 132.149 229.207 130.65 228.567C129.151 227.928 127.8 226.985 126.683 225.798C125.566 224.611 124.707 223.206 124.159 221.67C123.611 220.135 123.387 218.503 123.501 216.877L134.21 33.7197C134.454 30.32 135.965 27.1356 138.444 24.7959C140.922 22.4561 144.188 21.1312 147.596 21.083H235.738C237.368 21.068 238.983 21.3904 240.483 22.0299C241.982 22.6695 243.332 23.6124 244.45 24.7993C245.567 25.9862 246.426 27.3914 246.974 28.9266C247.521 30.4618 247.745 32.0937 247.632 33.7197L236.889 216.877C236.645 220.275 235.136 223.457 232.661 225.797C230.185 228.136 226.922 229.462 223.516 229.514Z" fill="white"/>
<path d="M222.995 225.846H137.323C136.178 225.857 135.043 225.631 133.989 225.182C132.936 224.733 131.987 224.071 131.201 223.238C130.416 222.404 129.812 221.417 129.427 220.339C129.042 219.26 128.884 218.114 128.963 216.971L139.672 34.61C139.844 32.2271 140.901 29.9947 142.635 28.3512C144.368 26.7077 146.654 25.7721 149.043 25.7282H234.715C235.86 25.718 236.996 25.9449 238.049 26.3946C239.103 26.8443 240.052 27.507 240.837 28.3411C241.622 29.1753 242.226 30.1628 242.611 31.2416C242.996 32.3204 243.154 33.4672 243.075 34.61L232.366 216.971C232.194 219.353 231.137 221.585 229.403 223.227C227.669 224.87 225.383 225.804 222.995 225.846Z" fill="#F7673F"/>
<path d="M222.072 224.869H136.4C135.254 224.879 134.119 224.652 133.066 224.203C132.012 223.753 131.063 223.09 130.278 222.256C129.493 221.422 128.889 220.435 128.503 219.356C128.118 218.277 127.961 217.13 128.04 215.987L138.749 33.6262C138.921 31.2434 139.977 29.0109 141.711 27.3674C143.445 25.724 145.731 24.7883 148.119 24.7444H233.792C234.937 24.7343 236.072 24.9612 237.126 25.4108C238.179 25.8605 239.128 26.5232 239.914 27.3574C240.699 28.1915 241.303 29.179 241.688 30.2578C242.073 31.3366 242.231 32.4835 242.151 33.6262L231.442 215.987C231.271 218.37 230.214 220.603 228.48 222.246C226.746 223.89 224.46 224.825 222.072 224.869Z" fill="white"/>
<path opacity="0.1" d="M219.569 218.089H139.673C138.965 218.095 138.263 217.955 137.612 217.677C136.961 217.399 136.374 216.99 135.889 216.475C135.404 215.959 135.03 215.349 134.792 214.682C134.554 214.016 134.457 213.307 134.505 212.601L139.003 136.533C139.109 135.057 139.764 133.674 140.84 132.658C141.915 131.642 143.333 131.066 144.813 131.045H224.675C225.383 131.038 226.085 131.179 226.736 131.456C227.387 131.734 227.974 132.144 228.459 132.659C228.944 133.175 229.318 133.785 229.556 134.452C229.794 135.118 229.891 135.827 229.842 136.533L225.378 212.601C225.273 214.077 224.617 215.459 223.542 216.476C222.466 217.492 221.048 218.068 219.569 218.089Z" fill="#F7673F"/>
<path opacity="0.1" d="M201.825 38.2712H178.539C178.286 38.2737 178.035 38.2237 177.803 38.1246C177.57 38.0254 177.36 37.8791 177.186 37.6949C177.013 37.5107 176.879 37.2925 176.794 37.0542C176.709 36.8159 176.674 36.5626 176.692 36.3101C176.729 35.7808 176.963 35.2847 177.349 34.9202C177.734 34.5557 178.243 34.3495 178.773 34.3424H202.052C202.308 34.3361 202.562 34.3834 202.799 34.4813C203.035 34.5793 203.249 34.7256 203.425 34.9109C203.602 35.0963 203.738 35.3165 203.824 35.5575C203.91 35.7985 203.945 36.0549 203.926 36.3101C203.889 36.8422 203.651 37.3405 203.261 37.7044C202.872 38.0683 202.358 38.2708 201.825 38.2712Z" fill="#F7673F"/>
<path opacity="0.1" d="M211.089 111.687C225.427 97.7628 226.406 75.5133 213.275 61.9914C200.144 48.4695 177.875 48.7957 163.537 62.72C149.198 76.6443 148.219 98.8938 161.35 112.416C174.481 125.938 196.75 125.611 211.089 111.687Z" fill="#F7673F"/>
<path d="M162.697 110.483C159.767 107.364 157.513 103.673 156.077 99.6421C154.641 95.6109 154.053 91.3265 154.351 87.0574H155.02C154.73 91.2347 155.305 95.4269 156.711 99.3715C158.116 103.316 160.32 106.928 163.185 109.981L162.697 110.483Z" fill="#F7673F"/>
<path d="M220.271 87.3453L219.602 87.3051C219.785 84.3567 219.56 81.3972 218.933 78.5103L219.602 78.3631C220.242 81.3114 220.467 84.3347 220.271 87.3453Z" fill="#F7673F"/>
<path d="M216.991 72.6875C215.353 69.0533 213.01 65.7803 210.098 63.0585C207.185 60.3367 203.761 58.2201 200.024 56.8315L200.259 56.2023C204.081 57.6195 207.583 59.7833 210.56 62.5676C213.537 65.3519 215.931 68.7011 217.601 72.4198L216.991 72.6875Z" fill="#F7673F"/>
<path d="M208.03 108.537C220.525 96.4028 221.38 77.0145 209.938 65.2322C198.496 53.45 179.091 53.7355 166.596 65.87C154.1 78.0045 153.246 97.3928 164.687 109.175C176.129 120.957 195.534 120.672 208.03 108.537Z" fill="#F7673F"/>
<path d="M188.334 67.0918C177.562 67.3738 168.313 76.3338 167.689 87.0917C167.065 97.8495 175.301 106.352 186.073 106.07C196.845 105.787 206.095 96.8275 206.719 86.0696C207.343 75.3118 199.107 66.8097 188.334 67.0918ZM176.873 99.0716C177.814 97.2956 183.026 95.4467 186.695 95.3506C190.364 95.2546 195.397 96.8352 196.115 98.5677C193.339 100.742 189.929 102.077 186.299 102.172C182.67 102.267 179.405 101.107 176.873 99.0716ZM199.069 95.6688C196.475 92.3508 189.77 91.3783 186.921 91.4529C184.072 91.5275 177.234 92.8546 174.246 96.3188C172.33 93.6716 171.397 90.393 171.592 86.9895C172.09 78.3949 179.502 71.2149 188.108 70.9895C196.714 70.7642 203.314 77.5772 202.816 86.1718C202.61 89.7188 201.211 93.0051 199.069 95.6688ZM187.882 74.8873C184.096 74.9865 180.875 78.1064 180.656 81.8873C180.437 85.6681 183.305 88.6287 187.091 88.5295C190.877 88.4304 194.097 85.3104 194.317 81.5296C194.536 77.7487 191.668 74.7882 187.882 74.8873ZM187.317 84.6318C185.697 84.6742 184.465 83.4027 184.559 81.7851C184.653 80.1675 186.036 78.8275 187.656 78.7851C189.276 78.7427 190.507 80.0142 190.414 81.6318C190.32 83.2494 188.937 84.5893 187.317 84.6318Z" fill="white"/>
<path d="M176.887 94.1119L176.719 94.3461C176.773 94.2658 176.833 94.1922 176.893 94.1186L176.887 94.1119Z" fill="#263238"/>
<path d="M186.397 88.3358C186.43 88.1819 186.457 88.0346 186.484 87.8874C186.457 88.0146 186.43 88.1819 186.397 88.3358Z" fill="#263238"/>
<path opacity="0.2" d="M186.397 88.3358C186.43 88.1819 186.457 88.0346 186.484 87.8874C186.457 88.0146 186.43 88.1819 186.397 88.3358Z" fill="black"/>
<path d="M186.638 85.9531C186.629 86.5554 186.585 87.1566 186.504 87.7536C186.588 87.1569 186.632 86.5555 186.638 85.9531Z" fill="#263238"/>
<path opacity="0.2" d="M186.638 85.9531C186.629 86.5554 186.585 87.1566 186.504 87.7536C186.588 87.1569 186.632 86.5555 186.638 85.9531Z" fill="black"/>
<path d="M224.314 33.981H233.744C234.002 33.9766 234.249 33.8759 234.436 33.6988C234.623 33.5216 234.737 33.2808 234.755 33.0238C234.763 32.9014 234.746 32.7786 234.705 32.6631C234.663 32.5475 234.599 32.4418 234.514 32.3526C234.43 32.2633 234.328 32.1925 234.216 32.1444C234.103 32.0964 233.981 32.0722 233.858 32.0734H224.421C224.164 32.0776 223.919 32.1774 223.732 32.3531C223.545 32.5289 223.43 32.768 223.41 33.0238C223.401 33.1474 223.417 33.2715 223.459 33.3883C223.5 33.5051 223.566 33.6119 223.651 33.702C223.736 33.7921 223.839 33.8634 223.953 33.9115C224.067 33.9595 224.19 33.9832 224.314 33.981Z" fill="#F7673F"/>
<path d="M224.12 37.2673H233.55C233.808 37.2629 234.054 37.1623 234.241 36.9851C234.429 36.808 234.542 36.5672 234.561 36.3102C234.57 36.1872 234.554 36.0637 234.513 35.9474C234.472 35.831 234.407 35.7245 234.323 35.6345C234.238 35.5445 234.136 35.4731 234.023 35.4246C233.909 35.3762 233.787 35.3518 233.664 35.3531H224.233C223.975 35.3558 223.726 35.4557 223.538 35.633C223.349 35.8104 223.234 36.0521 223.216 36.3102C223.209 36.4333 223.227 36.5566 223.269 36.6724C223.311 36.7883 223.376 36.8944 223.461 36.984C223.546 37.0737 223.648 37.1451 223.761 37.1938C223.874 37.2425 223.996 37.2675 224.12 37.2673Z" fill="#F7673F"/>
<path d="M147.825 37.2673H157.255C157.514 37.2631 157.761 37.1626 157.949 36.9856C158.137 36.8086 158.253 36.5678 158.273 36.3102C158.281 36.1869 158.264 36.0632 158.222 35.9469C158.18 35.8305 158.115 35.7241 158.03 35.6342C157.945 35.5444 157.843 35.473 157.729 35.4246C157.615 35.3762 157.493 35.3519 157.369 35.3531H147.938C147.68 35.3559 147.433 35.4561 147.246 35.6335C147.058 35.811 146.945 36.0527 146.928 36.3102C146.92 36.4329 146.937 36.5561 146.978 36.6719C147.019 36.7878 147.084 36.8939 147.168 36.9837C147.252 37.0735 147.354 37.145 147.467 37.1938C147.58 37.2426 147.702 37.2676 147.825 37.2673Z" fill="#F7673F"/>
<path d="M223.926 40.5471H233.376C233.635 40.5444 233.883 40.4445 234.072 40.2672C234.26 40.0898 234.375 39.8481 234.394 39.59C234.401 39.4669 234.383 39.3436 234.341 39.2277C234.299 39.1119 234.233 39.0058 234.149 38.9162C234.064 38.8265 233.962 38.7551 233.849 38.7064C233.735 38.6577 233.613 38.6327 233.49 38.6329H224.039C223.781 38.6371 223.534 38.7375 223.346 38.9146C223.157 39.0916 223.042 39.3324 223.022 39.59C223.014 39.7133 223.031 39.837 223.073 39.9533C223.115 40.0697 223.18 40.1761 223.265 40.266C223.35 40.3558 223.452 40.4272 223.566 40.4756C223.68 40.524 223.802 40.5483 223.926 40.5471Z" fill="#F7673F"/>
<path d="M211.53 160.629H154.478C153.412 160.639 152.356 160.428 151.376 160.01C150.396 159.592 149.513 158.976 148.782 158.2C148.052 157.424 147.49 156.506 147.131 155.502C146.773 154.499 146.626 153.432 146.7 152.369C146.861 150.148 147.848 148.067 149.468 146.538C151.087 145.009 153.221 144.143 155.448 144.11H212.5C213.566 144.1 214.622 144.311 215.602 144.728C216.582 145.146 217.465 145.763 218.196 146.538C218.926 147.314 219.488 148.233 219.847 149.236C220.205 150.239 220.352 151.306 220.278 152.369C220.117 154.591 219.13 156.671 217.51 158.2C215.891 159.729 213.757 160.596 211.53 160.629Z" fill="white"/>
<path d="M210.231 182.83H153.172C152.107 182.838 151.051 182.625 150.072 182.206C149.092 181.787 148.209 181.171 147.479 180.395C146.749 179.619 146.187 178.7 145.828 177.697C145.47 176.693 145.322 175.627 145.395 174.564C145.56 172.346 146.55 170.27 148.169 168.745C149.788 167.22 151.919 166.357 154.143 166.324H211.202C212.267 166.314 213.323 166.525 214.304 166.943C215.284 167.361 216.167 167.977 216.897 168.753C217.628 169.528 218.19 170.447 218.548 171.45C218.907 172.454 219.053 173.521 218.979 174.584C218.814 176.802 217.825 178.879 216.206 180.405C214.587 181.931 212.456 182.796 210.231 182.83Z" fill="white"/>
<path d="M208.926 205.024H151.874C150.808 205.034 149.752 204.823 148.772 204.405C147.792 203.987 146.909 203.371 146.178 202.595C145.448 201.82 144.886 200.901 144.527 199.898C144.169 198.894 144.022 197.827 144.096 196.765C144.257 194.542 145.244 192.461 146.863 190.931C148.483 189.401 150.617 188.533 152.844 188.499H209.896C210.962 188.489 212.018 188.701 212.999 189.12C213.979 189.538 214.862 190.155 215.592 190.931C216.322 191.708 216.884 192.627 217.243 193.63C217.601 194.634 217.748 195.701 217.674 196.765C217.513 198.986 216.526 201.067 214.906 202.596C213.287 204.125 211.153 204.991 208.926 205.024Z" fill="white"/>
<path d="M158.91 155.329C160.647 153.643 160.767 150.949 159.178 149.312C157.589 147.676 154.893 147.717 153.156 149.404C151.419 151.091 151.299 153.785 152.888 155.421C154.477 157.057 157.173 157.016 158.91 155.329Z" fill="#F7673F"/>
<path d="M155.529 170.541L156.091 172.662C156.124 172.779 156.194 172.882 156.29 172.954C156.387 173.027 156.505 173.066 156.627 173.064H158.855C158.981 173.065 159.103 173.108 159.202 173.185C159.302 173.261 159.373 173.369 159.406 173.49C159.438 173.612 159.43 173.74 159.383 173.857C159.336 173.973 159.251 174.071 159.143 174.135L157.262 175.474C157.155 175.545 157.074 175.647 157.028 175.767C156.982 175.887 156.975 176.019 157.008 176.143L157.57 178.265C157.604 178.386 157.599 178.516 157.556 178.634C157.514 178.753 157.436 178.856 157.333 178.929C157.23 179.003 157.107 179.042 156.98 179.043C156.854 179.044 156.73 179.006 156.627 178.934L154.9 177.595C154.802 177.526 154.685 177.49 154.565 177.49C154.445 177.49 154.328 177.526 154.23 177.595L152.35 178.934C152.251 179.012 152.129 179.055 152.003 179.056C151.877 179.057 151.755 179.016 151.655 178.938C151.555 178.861 151.485 178.753 151.454 178.631C151.423 178.509 151.435 178.38 151.486 178.265L152.296 176.143C152.346 176.028 152.356 175.9 152.324 175.778C152.293 175.657 152.221 175.55 152.122 175.474L150.395 174.135C150.3 174.053 150.233 173.944 150.202 173.823C150.171 173.701 150.178 173.573 150.223 173.456C150.268 173.339 150.347 173.238 150.451 173.168C150.555 173.098 150.678 173.062 150.803 173.064H153.032C153.159 173.064 153.282 173.026 153.386 172.954C153.49 172.882 153.57 172.781 153.615 172.662L154.398 170.541C154.433 170.418 154.508 170.311 154.61 170.234C154.712 170.158 154.836 170.116 154.963 170.116C155.091 170.116 155.215 170.158 155.317 170.234C155.419 170.311 155.493 170.418 155.529 170.541Z" fill="#F7673F"/>
<path d="M157.075 194.516L156.72 200.472C156.703 200.722 156.592 200.956 156.41 201.128C156.227 201.299 155.986 201.395 155.736 201.396H150.522C150.407 201.389 150.294 201.36 150.191 201.309C150.087 201.257 149.995 201.186 149.919 201.099C149.844 201.011 149.786 200.91 149.751 200.8C149.715 200.69 149.702 200.574 149.712 200.459L150.147 193.043C150.163 192.793 150.272 192.558 150.453 192.386C150.634 192.213 150.874 192.116 151.125 192.113H154.873L157.075 194.516Z" fill="#F7673F"/>
<path d="M154.839 192.126L157.095 194.516H155.629C155.51 194.517 155.392 194.494 155.282 194.447C155.172 194.4 155.074 194.331 154.992 194.244C154.91 194.158 154.847 194.055 154.807 193.943C154.767 193.83 154.751 193.711 154.759 193.592L154.839 192.126ZM154.244 190.487L154.15 192.086L154.063 193.552C154.051 193.766 154.083 193.979 154.155 194.18C154.228 194.382 154.34 194.566 154.485 194.723C154.632 194.879 154.809 195.002 155.006 195.086C155.203 195.17 155.415 195.213 155.629 195.212H158.695L157.597 194.041L155.348 191.651L154.244 190.487Z" fill="white"/>
<path opacity="0.2" d="M209.616 151.492H166.92C166.748 151.493 166.576 151.459 166.417 151.391C166.259 151.324 166.115 151.224 165.997 151.098C165.878 150.973 165.786 150.824 165.728 150.661C165.669 150.499 165.644 150.326 165.655 150.154C165.684 149.793 165.845 149.456 166.109 149.208C166.373 148.961 166.719 148.82 167.081 148.815H209.77C209.943 148.814 210.114 148.848 210.273 148.916C210.432 148.984 210.575 149.083 210.694 149.209C210.812 149.335 210.904 149.483 210.963 149.646C211.021 149.808 211.046 149.981 211.035 150.154C211.008 150.514 210.848 150.851 210.585 151.098C210.323 151.346 209.977 151.486 209.616 151.492Z" fill="#F7673F"/>
<path opacity="0.2" d="M201.524 155.937H166.666C166.493 155.938 166.321 155.903 166.162 155.836C166.003 155.768 165.859 155.668 165.74 155.543C165.621 155.417 165.529 155.269 165.469 155.106C165.41 154.944 165.384 154.771 165.394 154.598C165.423 154.237 165.584 153.9 165.848 153.653C166.112 153.405 166.458 153.265 166.82 153.259H201.678C201.851 153.257 202.023 153.291 202.183 153.358C202.342 153.425 202.487 153.525 202.606 153.651C202.725 153.776 202.818 153.925 202.877 154.088C202.936 154.251 202.961 154.425 202.949 154.598C202.92 154.958 202.757 155.294 202.494 155.541C202.231 155.789 201.885 155.929 201.524 155.937Z" fill="#F7673F"/>
<path opacity="0.2" d="M208.21 175.44H196.43C196.068 175.444 195.721 175.584 195.457 175.832C195.193 176.08 195.031 176.418 195.005 176.779C194.993 176.951 195.018 177.124 195.077 177.287C195.135 177.449 195.227 177.598 195.346 177.724C195.464 177.849 195.608 177.949 195.767 178.017C195.926 178.085 196.097 178.119 196.27 178.118H208.049C208.412 178.114 208.759 177.974 209.023 177.726C209.287 177.478 209.448 177.14 209.475 176.779C209.486 176.607 209.462 176.434 209.403 176.271C209.344 176.109 209.253 175.96 209.134 175.834C209.015 175.709 208.872 175.609 208.713 175.541C208.554 175.473 208.383 175.439 208.21 175.44Z" fill="#F7673F"/>
<path opacity="0.2" d="M189.543 175.44H165.521C165.159 175.444 164.812 175.584 164.548 175.832C164.284 176.08 164.123 176.418 164.096 176.779C164.084 176.952 164.108 177.125 164.166 177.288C164.224 177.451 164.316 177.6 164.435 177.726C164.554 177.851 164.697 177.951 164.857 178.019C165.016 178.086 165.188 178.12 165.361 178.118H189.389C189.751 178.112 190.097 177.972 190.361 177.724C190.625 177.477 190.787 177.139 190.815 176.779C190.826 176.606 190.801 176.432 190.742 176.27C190.683 176.107 190.591 175.958 190.471 175.832C190.352 175.706 190.208 175.606 190.048 175.539C189.888 175.472 189.716 175.438 189.543 175.44Z" fill="#F7673F"/>
<path opacity="0.2" d="M200.64 171.01H165.776C165.414 171.014 165.066 171.153 164.802 171.401C164.538 171.649 164.377 171.987 164.35 172.348C164.339 172.521 164.364 172.693 164.422 172.856C164.481 173.018 164.573 173.167 164.691 173.293C164.81 173.418 164.953 173.518 165.112 173.586C165.271 173.654 165.442 173.688 165.615 173.687H200.473C200.835 173.681 201.181 173.541 201.445 173.293C201.709 173.046 201.87 172.709 201.899 172.348C201.91 172.176 201.885 172.004 201.827 171.842C201.769 171.68 201.678 171.531 201.56 171.406C201.442 171.281 201.299 171.181 201.141 171.112C200.983 171.044 200.813 171.009 200.64 171.01Z" fill="#F7673F"/>
<path opacity="0.2" d="M206.905 197.635H164.216C163.855 197.642 163.509 197.783 163.246 198.03C162.983 198.277 162.82 198.613 162.791 198.973C162.78 199.146 162.804 199.32 162.863 199.483C162.923 199.646 163.015 199.795 163.134 199.92C163.254 200.046 163.398 200.146 163.557 200.213C163.717 200.28 163.889 200.314 164.062 200.312H206.751C207.112 200.306 207.458 200.166 207.72 199.918C207.983 199.67 208.143 199.333 208.17 198.973C208.181 198.801 208.157 198.628 208.098 198.465C208.039 198.303 207.948 198.154 207.829 198.029C207.71 197.903 207.567 197.803 207.408 197.736C207.249 197.668 207.078 197.633 206.905 197.635Z" fill="#F7673F"/>
<path opacity="0.2" d="M199.335 193.197H164.477C164.115 193.203 163.769 193.343 163.505 193.591C163.242 193.838 163.08 194.175 163.051 194.536C163.04 194.708 163.065 194.881 163.124 195.044C163.182 195.206 163.274 195.355 163.393 195.48C163.511 195.606 163.655 195.706 163.813 195.774C163.972 195.841 164.144 195.876 164.316 195.874H199.181C199.542 195.869 199.888 195.728 200.15 195.481C200.413 195.233 200.573 194.896 200.6 194.536C200.611 194.363 200.586 194.191 200.528 194.028C200.469 193.866 200.377 193.717 200.259 193.591C200.14 193.466 199.997 193.366 199.838 193.298C199.679 193.23 199.508 193.196 199.335 193.197Z" fill="#F7673F"/>
</g>
<defs>
<clipPath id="clip0">
<rect width="274" height="274" fill="white" transform="translate(38)"/>
</clipPath>
</defs>
</svg>
