<svg width="50" height="50" viewBox="0 0 50 50" fill="none" xmlns="http://www.w3.org/2000/svg">
<rect width="50" height="50" rx="8" fill="#D0D0D0"/>
<path d="M35.9091 18.8334H16.7246L20.3168 14.9916C20.7429 14.5361 20.7429 13.7973 20.3168 13.3417C19.8909 12.8861 19.2001 12.8861 18.7741 13.3417L13.3195 19.175C12.8935 19.6306 12.8935 20.3693 13.3195 20.8249L18.7741 26.6582C18.9871 26.8861 19.2663 27 19.5455 27C19.8247 27 20.1039 26.8861 20.3168 26.6582C20.7429 26.2027 20.7429 25.464 20.3168 25.0084L16.7246 21.1667H35.9091C36.5116 21.1667 37 20.6443 37 20C37 19.3557 36.5116 18.8334 35.9091 18.8334Z" fill="white"/>
<path d="M31.2259 23.3417C30.8 22.8861 30.1092 22.8861 29.6832 23.3417C29.2571 23.7972 29.2571 24.5359 29.6832 24.9916L33.2754 28.8333H14.0909C13.4884 28.8333 13 29.3557 13 30C13 30.6443 13.4884 31.1667 14.0909 31.1667H33.2754L29.6832 35.0084C29.2572 35.464 29.2572 36.2027 29.6832 36.6583C29.8962 36.8861 30.1754 37 30.4546 37C30.7338 37 31.013 36.8861 31.2259 36.6582L36.6805 30.8249C37.1065 30.3694 37.1065 29.6306 36.6805 29.175L31.2259 23.3417Z" fill="white"/>
</svg>
